<?xml version="1.0" encoding="utf-8"?><svg viewBox="0 0 270 270" xmlns="http://www.w3.org/2000/svg" xmlns:xlink="http://www.w3.org/1999/xlink"><svg viewBox="0 0 270 270" width="270" height="270" id="proper-logo" xmlns="http://www.w3.org/2000/svg"><g data-name="Layer 2"><path d="M0 0v270h270V0zm99 99h36v72H99zm-9 153H54a36 36 0 1 1 36-36zm0-117a36 36 0 0 1-36 36H18v-36a36 36 0 0 1 36-36h36zm0-81a36 36 0 0 1-36 36H18V18h36a36 36 0 0 1 36 36zm81 198l-72-72h72zm0-162H99V18h72z" fill="#fff" data-name="Layer 1"/></g></svg></svg>