<svg xmlns="http://www.w3.org/2000/svg" viewBox="0 0 489.57 168.57">
  <title>ipp-logo</title>
      <path d="M178.49,70.89h5.14l-1.18,5.59.14.14c1.57-2.83,3.8-6.53,9.8-6.53,6.3,0,9.18,5,9.06,12-.17,10-5.12,24.17-15.61,24.18a8.69,8.69,0,0,1-8.28-6.17h-.15L173.08,121h-5.14Zm7.06,31.22c7.6,0,10.16-14.31,10.24-19.32.07-4.14-.72-8.56-5.28-8.56-7,0-10.89,10.82-11,18.66C179.4,98.33,181.72,102.11,185.55,102.11Zm40,3.12a32,32,0,0,1-7.4,1c-7.52,0-14.27-3-14.07-14.44.18-10.31,5.14-21.71,16.65-21.71,6.36,0,10.63,4.06,10.53,9.8a20.37,20.37,0,0,1-.81,5.15h-20a26.89,26.89,0,0,0-.74,5.38c-.14,7.84,3.27,11.69,11.08,11.69a18.53,18.53,0,0,0,5.59-1ZM226,81a6.63,6.63,0,0,0,.17-1.31c.06-3.34-2.15-5.45-5.76-5.45-5.57,0-7.74,4.07-8.87,6.76Zm11.4-10.09h5.13L241,77.56l.14.15c2.32-4.51,6.07-7.62,12.94-7.62L253,75.38c-11.29,0-13.87,11.33-15.06,17.28l-2.67,12.78H230.1ZM262.86,75h-5.71l.86-4.06h5.72l.78-3.49c1.58-7.69,4.41-12.85,14.18-12.85a23.58,23.58,0,0,1,5.56.65l-.87,4.36a19.65,19.65,0,0,0-5.41-.87c-6.22,0-7.53,4.43-8.32,8.49l-.79,3.71h9.77L277.76,75H268l-6.38,30.49h-5.14Zm11.87,18.58c.17-10.38,4.81-23.44,18.12-23.44,7.3,0,11.43,4.42,11.29,12.48-.19,11.11-5,23.67-17.77,23.67C279.5,106.24,274.57,102.39,274.73,93.53ZM287,102.1c8.9,0,11.33-11,11.46-18.44.07-4.43-.71-9.44-6.35-9.44-8.61,0-11.62,11-11.75,18.73C280.3,97.46,281.81,102.1,287,102.1Zm23.85-31.22H316l-1.49,6.68.15.14c2.32-4.5,6.06-7.62,12.93-7.62l-1.1,5.3c-11.29,0-13.87,11.33-15.06,17.28l-2.67,12.78h-5.14Zm20.3,0h5.13l-1.49,6.9.14.14c2.45-3.7,5.2-7.84,11.56-7.84,4.06,0,6.54,2.9,6.45,7.77h.15c2.52-3.71,5.34-7.77,12-7.77,4.13,0,6.6,3.26,6.53,7.4a45.57,45.57,0,0,1-.89,5.67l-4.65,22.29H361l4.33-20.62a29.92,29.92,0,0,0,.82-5.67c0-2.61-1.45-4.28-3.62-4.28-6.87,0-10.9,11.4-12.47,18.81l-2.45,11.76h-5.13l4.33-20.62a39.88,39.88,0,0,0,.89-5.67c0-2.61-1.45-4.28-3.69-4.28-6.87,0-10.9,11.4-12.47,18.81l-2.45,11.76h-5.13Zm60.92,29-.15-.14c-1.57,2.83-3.8,6.53-9.8,6.53-6.22,0-9.18-5-9.06-12,.17-10,5.19-24.17,15.61-24.17A8.7,8.7,0,0,1,397,76.25h.14l1-5.37h5.14L396,105.44h-5.13ZM384,102.1c6.94,0,10.89-10.83,11-18.67.1-5.44-2.23-9.22-6.13-9.22-7.53,0-10.09,14.31-10.17,19.32C378.67,97.67,379.46,102.1,384,102.1Zm23.56-31.22h5.13l-1.49,6.89.14.15c2.59-3.71,5.49-7.84,12.29-7.84,4.19,0,6.88,3.33,6.81,7.76a35.67,35.67,0,0,1-.74,5.3L425,105.43h-5.14l4.33-20.62a33.78,33.78,0,0,0,.75-5.81A3.73,3.73,0,0,0,421,74.86c-7.23,0-11.55,11.41-13.12,18.81l-2.45,11.76h-5.13Zm46.55,34.41a32.11,32.11,0,0,1-6.89.94c-8.76,0-14.91-4-14.73-14.52.17-9.95,5.51-21.63,17.59-21.63,7,0,10.35,3.91,10.27,8.7a17,17,0,0,1-.26,2.62h-5.94a16.9,16.9,0,0,0,.26-2.11,4.69,4.69,0,0,0-5-5.08c-6.44,0-11.11,7-11.27,16.05-.1,6.1,2.19,11.83,11.23,11.83a24.39,24.39,0,0,0,5.58-.72Zm29.72-.08a32,32,0,0,1-7.4,1c-7.52,0-14.27-3-14.07-14.45.18-10.31,5.15-21.7,16.65-21.71,6.36,0,10.63,4.06,10.53,9.8a20.45,20.45,0,0,1-.81,5.16h-20a26.79,26.79,0,0,0-.74,5.37c-.14,7.84,3.27,11.69,11.08,11.69a18.51,18.51,0,0,0,5.59-.94ZM484.26,81a7.35,7.35,0,0,0,.17-1.31c.06-3.34-2.15-5.44-5.76-5.44-5.57,0-7.74,4.06-8.87,6.75Z" fill="#fff"/>
      <path d="M156.2,12.38C131.92-11.89,80.06.63,40.34,40.34s-52.23,91.59-28,115.86,76.14,11.75,115.85-28S180.47,36.65,156.2,12.38ZM122.69,121.82c-32.26,32.26-75.43,41.38-96.42,20.39S14.39,78,46.65,45.79,122.07,4.4,143.07,25.4,154.94,89.57,122.69,121.82Z" fill="#fff"/>
      <path d="M131.22,55.2H77.6L63.61,121h26l10.69-50.31h16.77c6.54,0,8.6,2,7.54,7-1,4.79-3.94,6.82-10.48,6.82,0,0-8.67,0-12.41,4.63a17.34,17.34,0,0,0-2.94,7.21L98,100.53h23.79c18.43,0,27.14-9.76,29.82-22.39C154.71,63.49,149.65,55.2,131.22,55.2Z" fill="#fff"/>
      <path d="M52.49,55.2H44.71L30.73,121h26L66.65,73.9s1.64-8.41-3.34-13.5A17,17,0,0,0,52.49,55.2Z" fill="#fff"/>
</svg>