<svg viewBox="0 0 302.99 136.2" class="logo">
	<style>
		.green{
			fill: var(--color-green, green);
		}	
		.turquoise{
			fill: var(--color-turquoise, turquoise);
		}
	</style>
  <path d="M47.27,59.07h-10.12s-5.06,8.76-5.06,8.76l5.06,8.76h10.12s5.06-8.76,5.06-8.76l-5.06-8.76h0Z" class="green" stroke-width="0"/>
  <g>
    <path d="M101.24,36.85l-4.7-4.7V15.45l4.7-4.75h11.1l3.9,3.95v2.9h-1.65v-2.4l-2.9-2.95h-9.85l-3.65,3.7v15.7l3.65,3.7h14.15v1.55h-14.75Z" class="turquoise" stroke-width="0"/>
    <path d="M127.74,46.2l4.85-11.6h-1.2l-11.7-23.9h1.75l10.8,22.1h1.05l9-22.1h1.75l-14.6,35.5h-1.7Z" class="turquoise" stroke-width="0"/>
    <path d="M149.63,36.85V0h1.65v15.4l4.3-4.7h10.1l4.7,4.75v16.7l-4.7,4.7h-10.1l-4.3-4.65v4.65h-1.65ZM156.13,35.35h8.95l3.65-3.65v-15.8l-3.65-3.7h-8.95l-4.85,5.15v12.85l4.85,5.15Z" class="turquoise" stroke-width="0"/>
    <path d="M182.64,36.85l-4.7-4.7V15.45l4.7-4.75h11.2l4.65,4.75v8.95h-18.9v7.25l3.65,3.65h14.85v1.55h-15.45ZM179.58,22.9h17.25v-7l-3.6-3.7h-10l-3.65,3.7v7Z" class="turquoise" stroke-width="0"/>
    <path d="M206.09,36.85V10.7h1.65v4.8l4.35-4.8h7.95v1.65h-7.55l-4.75,5.1v19.4h-1.65Z" class="turquoise" stroke-width="0"/>
  </g>
  <g>
    <path d="M96.54,81.85v-36.85h4.4v14.85l4-4.15h9.65l5.2,5.25v15.65l-5.2,5.25h-9.65l-4-4.1v4.1h-4.4ZM106.09,78.35h6.6l2.7-2.75v-13.65l-2.7-2.75h-6.6l-5.15,5.25v8.7l5.15,5.2Z" class="green" stroke-width="0"/>
    <path d="M126.55,81.85v-26.15h4.4v4.7l4.55-4.7h6.7v4.4h-6.5l-4.75,4.9v16.85h-4.4Z" class="green" stroke-width="0"/>
    <path d="M152.45,81.85l-5.25-5.25v-15.65l5.25-5.25h11.65l5.25,5.25v9.45h-17.75v5.05l2.75,2.75h14.55v3.65h-16.45ZM151.6,66.9h13.35v-4.95l-2.75-2.75h-7.85l-2.75,2.75v4.95Z" class="green" stroke-width="0"/>
    <path d="M180.27,81.85l-5.2-5.25v-5.95l5.2-5.25h13.3v-3.25l-2.7-2.75h-12.4v-3.7h14.3l5.2,5.25v20.9h-4.4v-4.05l-4.05,4.05h-9.25ZM182.22,78.35h6.2l5.15-5.1v-4.4l-11.35.05-2.75,2.7v4l2.75,2.75Z" class="green" stroke-width="0"/>
    <path d="M209.4,81.85l-5.25-5.25v-15.65l5.25-5.25h11.95l4.6,4.55v4.15h-4.4v-2.7l-2.5-2.5h-7.75l-2.75,2.75v13.45l2.75,2.8h14.4v3.65h-16.3Z" class="green" stroke-width="0"/>
    <path d="M231.54,81.85v-36.85h4.4v14.85l4-4.15h9.65l5.2,5.25v20.9h-4.4v-19.8l-2.65-2.85h-6.65l-5.15,5.25v17.4h-4.4Z" class="green" stroke-width="0"/>
  </g>
  <g>
    <path d="M96.54,126.85v-26.15h1.65v4.8l4.35-4.8h7.95v1.65h-7.55l-4.75,5.1v19.4h-1.65Z" class="turquoise" stroke-width="0"/>
    <path d="M119.29,126.85l-4.7-4.7v-16.7l4.7-4.75h11.2l4.65,4.75v8.95h-18.9v7.25l3.65,3.65h14.85v1.55h-15.45ZM116.24,112.9h17.25v-7l-3.6-3.7h-10l-3.65,3.7v7Z" class="turquoise" stroke-width="0"/>
    <path d="M143.24,126.85v-1.55h14.1l2.85-2.85v-5.6l-2.7-2.7h-11.55l-3.65-3.7v-5.8l3.85-3.95h13.75v1.55h-13.1l-2.85,2.9v4.75l2.65,2.7h11.55l3.7,3.7v6.6l-3.85,3.95h-14.75Z" class="turquoise" stroke-width="0"/>
    <path d="M169.89,136.2v-35.5h1.65v4.7l4.3-4.7h10.1l4.7,4.75v16.7l-4.7,4.7h-10.1l-4.3-4.65v14h-1.65ZM176.39,125.35h8.95l3.65-3.65v-15.8l-3.65-3.7h-8.95l-4.85,5.15v12.85l4.85,5.15Z" class="turquoise" stroke-width="0"/>
    <path d="M202.89,126.85l-4.7-4.7v-16.7l4.7-4.75h11.3l4.7,4.75v16.7l-4.7,4.7h-11.3ZM203.49,125.35h10.15l3.6-3.65v-15.8l-3.6-3.7h-10.15l-3.65,3.7v15.8l3.65,3.65Z" class="turquoise" stroke-width="0"/>
    <path d="M227.43,126.85v-26.15h1.65v4.8l4.35-4.8h10.15l4.65,4.75v21.4h-1.65l.05-20.95-3.65-3.7h-9l-4.9,5.25v19.4h-1.65Z" class="turquoise" stroke-width="0"/>
    <path d="M256.78,126.85v-1.55h14.1l2.85-2.85v-5.6l-2.7-2.7h-11.55l-3.65-3.7v-5.8l3.85-3.95h13.75v1.55h-13.1l-2.85,2.9v4.75l2.65,2.7h11.55l3.7,3.7v6.6l-3.85,3.95h-14.75Z" class="turquoise" stroke-width="0"/>
    <path d="M287.14,126.85l-4.7-4.7v-16.7l4.7-4.75h11.2l4.65,4.75v8.95h-18.9v7.25l3.65,3.65h14.85v1.55h-15.45ZM284.09,112.9h17.25v-7l-3.6-3.7h-10l-3.65,3.7v7Z" class="turquoise" stroke-width="0"/>
  </g>
  <path d="M69.52,67.85l6.61-11.45-2.82-4.88-9.43,16.33,9.47,16.41,2.82-4.88-6.65-11.53Z" class="green" stroke-width="0"/>
  <path d="M275.53,79.38l2.82,4.88,9.47-16.41-9.43-16.33-2.82,4.88,6.61,11.45-6.65,11.53Z" class="green" stroke-width="0"/>
  <polygon points="69.02 86.76 67.51 84.15 59.1 98.72 52.31 98.72 30.24 98.72 23.46 98.72 5.64 67.85 23.46 36.99 30.24 36.99 52.31 36.99 59.1 36.99 67.51 51.56 68.98 49.02 70.33 46.67 61.92 32.1 55.13 32.1 27.43 32.1 20.64 32.1 0 67.85 20.64 103.6 27.43 103.6 55.13 103.6 61.92 103.6 70.33 89.03 69.02 86.76" class="turquoise" stroke-width="0"/>
</svg>